HIERARCHY
ROOT Hips
{
	OFFSET 173.408295 91.952423 -518.280273
	CHANNELS 6 Xposition Yposition Zposition Zrotation Yrotation Xrotation 
	JOINT LeftUpLeg
	{
		OFFSET 0.103459 1.857827 10.548504
		CHANNELS 3 Zrotation Yrotation Xrotation
		JOINT LeftLeg
		{
			OFFSET 43.500008 0.000000 0.000004
			CHANNELS 3 Zrotation Yrotation Xrotation
			JOINT LeftFoot
			{
				OFFSET 42.372192 0.000011 0.000000
				CHANNELS 3 Zrotation Yrotation Xrotation
				JOINT LeftToe
				{
					OFFSET 17.299973 -0.000013 -0.000010
					CHANNELS 3 Zrotation Yrotation Xrotation
					End Site
					{
						OFFSET 0.000000 0.000000 0.000000
					}
				}
			}
		}
	}
	JOINT RightUpLeg
	{
		OFFSET 0.103454 1.857830 -10.548500
		CHANNELS 3 Zrotation Yrotation Xrotation
		JOINT RightLeg
		{
			OFFSET 43.500038 -0.000038 0.000004
			CHANNELS 3 Zrotation Yrotation Xrotation
			JOINT RightFoot
			{
				OFFSET 42.372253 0.000019 0.000024
				CHANNELS 3 Zrotation Yrotation Xrotation
				JOINT RightToe
				{
					OFFSET 17.299988 -0.000007 0.000004
					CHANNELS 3 Zrotation Yrotation Xrotation
					End Site
					{
						OFFSET 0.000000 0.000000 0.000000
					}
				}
			}
		}
	}
	JOINT Spine
	{
		OFFSET 6.901963 -2.603744 0.000004
		CHANNELS 3 Zrotation Yrotation Xrotation
		JOINT Spine1
		{
			OFFSET 12.588104 0.000008 -0.000010
			CHANNELS 3 Zrotation Yrotation Xrotation
			JOINT Spine2
			{
				OFFSET 12.343202 -0.000005 0.000010
				CHANNELS 3 Zrotation Yrotation Xrotation
				JOINT Neck
				{
					OFFSET 25.832897 0.000000 0.000001
					CHANNELS 3 Zrotation Yrotation Xrotation
					JOINT Head
					{
						OFFSET 11.766611 -0.000006 -0.000000
						CHANNELS 3 Zrotation Yrotation Xrotation
						End Site
						{
							OFFSET 0.000000 0.000000 0.000000
						}
					}
				}
				JOINT LeftShoulder
				{
					OFFSET 19.745899 -1.480366 6.000108
					CHANNELS 3 Zrotation Yrotation Xrotation
					JOINT LeftArm
					{
						OFFSET 11.284111 -0.000018 -0.000015
						CHANNELS 3 Zrotation Yrotation Xrotation
						JOINT LeftForeArm
						{
							OFFSET 33.000050 -0.000005 0.000028
							CHANNELS 3 Zrotation Yrotation Xrotation
							JOINT LeftHand
							{
								OFFSET 25.200012 0.000000 0.000002
								CHANNELS 3 Zrotation Yrotation Xrotation
								End Site
								{
									OFFSET 0.000000 0.000000 0.000000
								}
							}
						}
					}
				}
				JOINT RightShoulder
				{
					OFFSET 19.746111 -1.480335 -6.000074
					CHANNELS 3 Zrotation Yrotation Xrotation
					JOINT RightArm
					{
						OFFSET 11.284151 0.000036 0.000001
						CHANNELS 3 Zrotation Yrotation Xrotation
						JOINT RightForeArm
						{
							OFFSET 33.000092 -0.000035 0.000022
							CHANNELS 3 Zrotation Yrotation Xrotation
							JOINT RightHand
							{
								OFFSET 25.199768 0.000178 0.000417
								CHANNELS 3 Zrotation Yrotation Xrotation
								End Site
								{
									OFFSET 0.000000 0.000000 0.000000
								}
							}
						}
					}
				}
			}
		}
	}
}
MOTION
Frames: 11
Frame Time: 0.033333
2.198552 0.359756 3.593703 96.632889 1.190109 127.418007 178.558456 0.263570 151.994781 -41.106693 1.215567 16.721878 73.911598 -19.872530 -10.982034 21.454407 0.003092 0.000000 141.228409 4.187909 -179.637375 -18.716457 6.545950 2.342394 48.402122 -16.029715 -21.863436 21.455153 -0.003109 -0.000017 13.718126 0.668770 -3.633036 12.176343 2.969918 -4.221594 6.588852 3.173578 -5.360839 -26.807981 -20.729252 -15.012611 35.742783 46.859158 22.897165 16.867535 -88.583755 153.793488 -30.920547 49.016644 117.026764 50.463116 -47.583523 -92.625542 -2.054289 -22.473085 32.258701 -162.748001 72.883820 11.358192 12.105963 -49.082741 -121.128548 26.254189 27.125998 25.295164 2.195514 24.029297 -18.634733 
4.549282 0.615263 7.162702 96.825294 0.233962 127.765556 179.172852 1.922769 151.583008 -36.995605 0.217459 15.990134 77.954628 -19.707703 -14.890664 21.454416 0.003092 -0.000000 141.810654 3.885866 178.736511 -17.389349 5.189680 0.885344 46.528103 -15.607687 -21.472591 21.455151 -0.003109 -0.000017 13.433853 0.469770 -3.517045 12.606242 3.118320 -3.988888 7.019856 3.594590 -5.210942 -28.187132 -20.531702 -14.435900 36.228973 45.719814 23.457891 48.336750 -89.368195 122.540390 -34.659065 48.538284 113.477875 54.610390 -46.999451 -94.898392 -1.749040 -22.267839 31.325941 -162.808716 73.152924 11.119253 13.933851 -49.260056 -122.313843 24.469271 26.507782 25.398611 2.233752 23.908493 -20.143051 
6.924721 0.781757 10.677629 97.120735 -0.755265 127.270638 -179.563263 3.747088 152.569504 -33.318054 -0.066941 14.042130 79.739632 -18.855467 -17.672911 21.454412 0.003092 0.000000 142.326370 3.537007 177.847595 -17.729935 4.195391 -0.393779 46.812828 -14.702109 -22.564146 21.455111 -0.003109 -0.000017 13.495689 0.056101 -3.560681 12.995260 3.087209 -3.944631 7.599913 3.861706 -5.142230 -28.890614 -19.223234 -13.799667 36.496189 43.558517 24.149214 85.578865 -89.579414 85.689522 -36.551636 48.682083 111.212204 57.494076 -45.628670 -94.637886 -1.061033 -22.338930 29.395052 -163.126633 73.553986 10.909343 15.908669 -48.951942 -123.780807 24.462103 26.330984 26.370501 1.514893 23.503489 -21.282253 
9.168242 0.903088 14.190445 97.095230 -1.627704 125.881210 -178.004868 5.432099 154.370743 -30.894945 0.677872 11.336678 77.590019 -17.983557 -18.777992 21.454382 0.003092 0.000000 142.793716 3.067620 177.567841 -19.221182 3.817866 -1.310213 48.697231 -13.078981 -24.293800 21.455050 -0.003109 -0.000017 13.766937 -0.155267 -3.319432 13.346935 2.803342 -4.018953 8.176017 3.757659 -5.431964 -29.098202 -17.414436 -13.135067 35.957626 40.674866 24.565395 88.228500 -89.542427 83.483398 -36.355656 49.459564 110.628235 58.457748 -43.835323 -92.028679 -1.053522 -22.444790 28.782682 -163.339005 74.049904 10.717110 17.174278 -48.680634 -124.806114 26.382261 26.545355 27.993673 0.411628 23.575794 -21.513058 
11.111113 0.909035 17.686171 96.827477 -1.831270 124.413818 -177.412491 5.881990 156.814728 -31.718075 1.807950 7.389200 73.095123 -16.152229 -18.808195 21.454353 0.003092 0.000000 143.170303 2.525290 177.920685 -21.440094 4.560184 -0.873858 51.554726 -10.909363 -26.115757 21.455002 -0.003109 -0.000016 14.404091 0.136604 -3.356629 13.501211 2.501152 -4.132545 8.611987 3.348871 -5.404321 -28.758101 -15.669695 -12.268634 34.957581 37.691021 25.075241 73.610527 -89.469177 98.427711 -35.268314 50.767948 110.600708 58.414200 -41.952538 -88.366714 -1.776134 -22.777716 29.295855 -163.859802 74.660660 10.276590 18.326689 -48.587795 -125.861694 29.140314 26.748314 29.857939 -0.714007 23.780432 -21.409567 
12.656664 0.750689 21.016571 96.088188 -1.392616 123.311600 -178.151917 4.748300 158.530518 -36.016975 2.750232 2.570949 69.759880 -13.330604 -19.195673 21.454327 0.003093 0.000000 143.546066 1.772516 178.283340 -24.409702 6.351070 0.706063 55.350700 -8.451738 -27.338205 21.454945 -0.003109 -0.000016 15.114382 1.044598 -3.529667 13.470344 2.368213 -3.869642 8.588119 2.787127 -5.145654 -27.787075 -14.285343 -11.272135 33.755669 34.618450 25.793100 60.116127 -89.567039 112.378822 -34.571808 52.107849 109.980698 57.694469 -40.303211 -84.490593 -2.941109 -22.761562 30.877607 -164.769409 75.309097 9.351369 19.309465 -48.905205 -127.037949 31.872612 26.563742 31.543520 -1.238357 23.823011 -21.327612 
13.881561 0.614112 24.135130 95.000694 -0.715394 122.964668 179.113297 2.634344 160.762085 -43.724579 3.575973 -1.679831 70.393349 -10.708138 -20.392578 21.454317 0.003093 0.000000 143.449081 1.316057 178.581528 -28.075384 8.587270 2.634453 60.200623 -6.073168 -27.034004 21.454895 -0.003109 -0.000017 15.577172 2.279756 -3.537702 13.330024 2.584912 -3.491719 8.346602 2.391403 -4.779837 -26.457378 -13.434604 -10.144850 32.298660 31.749269 26.370993 54.328743 -89.526047 118.441467 -34.337246 53.526169 108.746048 56.266144 -39.014637 -80.964195 -3.818698 -22.087173 31.592283 -165.116226 75.677704 9.183290 20.049032 -49.766628 -128.242142 33.190086 26.416992 32.372280 -0.820146 24.466412 -20.485804 
14.961712 0.654210 27.118401 94.502869 -0.585511 122.906982 173.652817 0.701341 162.733154 -54.962276 4.128631 -3.847602 70.599808 -9.943492 -21.389717 21.454317 0.003093 -0.000000 143.121292 1.428147 178.988647 -32.279041 10.354042 4.432034 64.823509 -3.972813 -24.172806 21.454887 -0.003109 -0.000017 15.406724 2.994085 -3.261869 13.218160 2.708213 -3.048553 8.213267 2.290810 -4.304705 -25.132233 -12.563643 -8.904565 31.201515 29.332754 27.211584 52.348736 -89.348976 120.535187 -35.313725 54.705528 106.077965 53.657745 -38.302406 -77.613029 -3.878298 -20.903608 31.417751 -165.366104 75.481697 9.282120 20.330681 -51.002995 -129.137909 32.500378 26.586964 32.005371 -0.157129 24.829865 -19.435984 
16.171803 0.820865 30.233639 94.911659 -0.800910 123.200142 167.156494 -0.317247 162.388779 -67.237915 5.296199 -3.385637 71.504417 -9.891931 -18.457006 21.454329 0.003093 0.000000 143.529663 2.095201 179.271561 -36.590294 11.314185 5.275309 68.373383 -3.533840 -18.698761 21.454887 -0.003109 -0.000017 15.448786 2.890727 -3.103027 13.130273 2.886915 -2.552432 7.868728 1.948500 -3.886873 -23.530897 -11.226970 -7.540585 30.339272 27.407238 28.105694 21.521915 -88.710167 151.480469 -36.375546 56.031879 103.243690 50.027363 -37.959850 -74.369591 -3.717128 -19.844208 31.935453 -165.232941 75.103683 9.796652 20.356750 -52.610275 -129.802887 31.060158 27.080307 31.122314 -0.057495 24.371756 -18.489805 
17.759066 1.108051 33.678383 95.997871 -1.060360 123.337090 160.542831 -0.993552 160.873627 -78.170326 5.664903 -3.839902 72.304008 -8.122514 -15.738966 21.454338 0.003092 0.000000 144.800476 2.680138 178.690887 -40.194252 11.407379 5.979110 71.437111 -4.100506 -12.649931 21.454905 -0.003109 -0.000017 15.484873 2.094951 -2.800915 13.338137 2.606783 -2.158780 7.823196 2.234516 -3.458559 -21.776894 -10.180690 -6.525651 29.477568 26.327677 28.817509 12.300773 -88.000313 160.777451 -35.753658 57.399029 102.163231 46.206089 -37.425137 -71.502937 -3.411392 -19.074999 32.283497 -165.054214 75.102036 10.473220 20.313026 -53.994343 -130.343323 30.794504 27.955080 30.265373 -0.451836 23.322416 -17.385592 
19.799030 1.482793 37.384781 97.087654 -1.122415 123.639015 155.317383 -1.905734 158.764252 -84.523376 5.559798 -4.790640 69.197144 -4.030005 -14.035109 21.454357 0.003091 -0.000000 146.812134 2.644586 177.320724 -42.575100 11.250931 6.823930 74.738976 -5.293586 -7.275520 21.454933 -0.003109 -0.000017 15.234458 1.372304 -2.565287 13.296581 2.529679 -1.844641 7.742752 2.476460 -3.038894 -19.706079 -9.870187 -5.940493 28.434456 25.890831 29.405602 7.895589 -87.827499 165.320862 -32.321075 58.815800 104.062126 42.509235 -36.189091 -69.004997 -3.042664 -18.765579 32.490063 -163.630325 75.576187 12.448827 20.222488 -54.877396 -130.733932 32.902679 28.915396 29.937363 -0.828693 22.009615 -16.214014 
